<?xml version="1.0" encoding="UTF-8" standalone="no"?>
<!DOCTYPE svg PUBLIC "-//W3C//DTD SVG 1.1//EN"
 "http://www.w3.org/Graphics/SVG/1.1/DTD/svg11.dtd">
<!-- Generated by graphviz version 2.47.1 (20210417.1919)
 -->
<!-- Title: Portafolio Pages: 1 -->
<svg width="264pt" height="188pt"
 viewBox="0.00 0.00 263.50 188.00" xmlns="http://www.w3.org/2000/svg" xmlns:xlink="http://www.w3.org/1999/xlink">
<g id="graph0" class="graph" transform="scale(1 1) rotate(0) translate(4 184)">
<title>Portafolio</title>
<polygon fill="white" stroke="transparent" points="-4,4 -4,-184 259.5,-184 259.5,4 -4,4"/>
<!-- Home -->
<g id="node1" class="node">
<title>Home</title>
<polygon fill="none" stroke="black" points="80,-180 22,-180 22,-144 80,-144 80,-180"/>
<text text-anchor="start" x="33.89" y="-157.4" font-family="Times New Roman,serif" font-size="14.00">Home</text>
</g>
<!-- CreateData -->
<g id="node2" class="node">
<title>CreateData</title>
<polygon fill="none" stroke="black" points="86,-108 0,-108 0,-72 86,-72 86,-108"/>
<text text-anchor="start" x="11.52" y="-85.4" font-family="Times New Roman,serif" font-size="14.00">CreateData</text>
</g>
<!-- Home&#45;&gt;CreateData -->
<g id="edge1" class="edge">
<title>Home&#45;&gt;CreateData</title>
<path fill="none" stroke="black" d="M43.11,-143.7C41.43,-135.98 40.14,-126.71 39.5,-118.11"/>
<polygon fill="black" stroke="black" points="43,-117.94 39.06,-108.1 36.01,-118.25 43,-117.94"/>
</g>
<!-- ViewData -->
<g id="node3" class="node">
<title>ViewData</title>
<polygon fill="none" stroke="black" points="184,-108 104,-108 104,-72 184,-72 184,-108"/>
<text text-anchor="start" x="115.63" y="-85.4" font-family="Times New Roman,serif" font-size="14.00">ViewData</text>
</g>
<!-- Home&#45;&gt;ViewData -->
<g id="edge2" class="edge">
<title>Home&#45;&gt;ViewData</title>
<path fill="none" stroke="black" d="M68.07,-143.7C79.08,-134.71 93.67,-123.61 107.16,-113.92"/>
<polygon fill="black" stroke="black" points="109.24,-116.74 115.38,-108.1 105.2,-111.03 109.24,-116.74"/>
</g>
<!-- CreateData&#45;&gt;Home -->
<g id="edge3" class="edge">
<title>CreateData&#45;&gt;Home</title>
<path fill="none" stroke="black" d="M50.85,-108.1C52.53,-115.79 53.83,-125.05 54.48,-133.67"/>
<polygon fill="black" stroke="black" points="50.99,-133.87 54.94,-143.7 57.98,-133.55 50.99,-133.87"/>
</g>
<!-- ViewData&#45;&gt;Home -->
<g id="edge4" class="edge">
<title>ViewData&#45;&gt;Home</title>
<path fill="none" stroke="black" d="M127.07,-108.19C116.05,-117.18 101.42,-128.32 87.89,-138.04"/>
<polygon fill="black" stroke="black" points="85.78,-135.24 79.65,-143.88 89.83,-140.95 85.78,-135.24"/>
</g>
<!-- CreateBitacora -->
<g id="node4" class="node">
<title>CreateBitacora</title>
<polygon fill="none" stroke="black" points="136.5,-36 29.5,-36 29.5,0 136.5,0 136.5,-36"/>
<text text-anchor="start" x="41.52" y="-13.4" font-family="Times New Roman,serif" font-size="14.00">CreateBitacora</text>
</g>
<!-- ViewData&#45;&gt;CreateBitacora -->
<g id="edge5" class="edge">
<title>ViewData&#45;&gt;CreateBitacora</title>
<path fill="none" stroke="black" d="M123.01,-71.7C114.91,-63.39 105.9,-53.28 98.4,-44.14"/>
<polygon fill="black" stroke="black" points="100.97,-41.75 92.01,-36.1 95.5,-46.11 100.97,-41.75"/>
</g>
<!-- ViewBitacora -->
<g id="node5" class="node">
<title>ViewBitacora</title>
<polygon fill="none" stroke="black" points="255.5,-36 154.5,-36 154.5,0 255.5,0 255.5,-36"/>
<text text-anchor="start" x="166.63" y="-13.4" font-family="Times New Roman,serif" font-size="14.00">ViewBitacora</text>
</g>
<!-- ViewData&#45;&gt;ViewBitacora -->
<g id="edge6" class="edge">
<title>ViewData&#45;&gt;ViewBitacora</title>
<path fill="none" stroke="black" d="M153.16,-71.7C159.68,-63.22 168.51,-52.86 177.1,-43.58"/>
<polygon fill="black" stroke="black" points="179.85,-45.77 184.2,-36.1 174.78,-40.95 179.85,-45.77"/>
</g>
<!-- CreateBitacora&#45;&gt;ViewData -->
<g id="edge8" class="edge">
<title>CreateBitacora&#45;&gt;ViewData</title>
<path fill="none" stroke="black" d="M103.8,-36.1C111.88,-44.38 120.9,-54.49 128.42,-63.64"/>
<polygon fill="black" stroke="black" points="125.87,-66.06 134.84,-71.7 131.34,-61.69 125.87,-66.06"/>
</g>
<!-- ViewBitacora&#45;&gt;ViewData -->
<g id="edge7" class="edge">
<title>ViewBitacora&#45;&gt;ViewData</title>
<path fill="none" stroke="black" d="M195.99,-36.1C189.51,-44.55 180.69,-54.9 172.1,-64.2"/>
<polygon fill="black" stroke="black" points="169.33,-62.03 164.99,-71.7 174.41,-66.85 169.33,-62.03"/>
</g>
<!-- CreateRP -->
<g id="node6" class="node">
<title>CreateRP</title>
<polygon fill="none" stroke="black" points="182.5,-180 105.5,-180 105.5,-144 182.5,-144 182.5,-180"/>
<text text-anchor="start" x="117.67" y="-157.4" font-family="Times New Roman,serif" font-size="14.00">CreateRP</text>
</g>
<!-- CreateRP&#45;&gt;ViewData -->
<g id="edge9" class="edge">
<title>CreateRP&#45;&gt;ViewData</title>
<path fill="none" stroke="black" d="M144,-143.7C144,-135.98 144,-126.71 144,-118.11"/>
<polygon fill="black" stroke="black" points="147.5,-118.1 144,-108.1 140.5,-118.1 147.5,-118.1"/>
</g>
</g>
</svg>
